<svg width="420" height="125" xmlns="http://www.w3.org/2000/svg" xmlns:xlink="http://www.w3.org/1999/xlink"><defs><path id="a" d="M.001.335h34.381V42.21H.002z"/><path id="c" d="M0 120h301V.851H0z"/><path id="e" d="M0 0h84v125H0z"/></defs><g fill="none" fill-rule="evenodd"><g transform="translate(119 3)"><g transform="translate(3.401)"><mask id="b" fill="#fff"><use xlink:href="#a"/></mask><path d="M7.57 16.939c0 6.112 4.39 9.762 9.622 9.762s9.624-3.65 9.624-9.762c0-6.113-4.392-9.762-9.624-9.762s-9.623 3.65-9.623 9.762zM25.786 42.21c-7.52 0-10.744-3.284-10.883-8.804C6.074 32.312 0 25.012 0 16.94.001 7.679 7.243.334 17.192.334c9.95 0 17.19 7.345 17.19 16.423 0 7.48-4.484 13.64-12.051 15.783v.182c-.093 2.007.888 2.738 3.783 2.738h2.384v6.75h-2.71z" fill="#FFF" mask="url(#b)"/></g><path d="M47.1 14.342h7.006c2.775 0 3.92-1.525 3.92-3.696 0-2.172-1.145-3.696-3.92-3.696H47.1v7.392zm3.833 6.098h-3.832V33.19h-7.138V.851H53.4c7.402 0 11.543 3.42 11.543 9.518 0 4.942-2.687 7.623-6.695 9.424l7.224 13.398h-7.665L50.933 20.44zM87.237 20.533l-2.544-6.792-.47-1.201c-.33-.74-.613-1.617-.896-2.634-.33.97-.566 1.94-.895 2.634l-.47 1.201-2.544 6.792h7.82zm13.096 12.658h-8.29l-2.404-6.283H77.015l-2.402 6.283h-8.291L79.748.851h7.16l13.425 32.34zM96.932.851h25.509v6.56h-9.168v25.78H106.1V7.411h-9.168zM125.842.851h22.824v6.56h-15.59v5.868h14.339v6.376h-14.338v6.976h15.722v6.56h-22.957zM165.983 13.734c6.938 1.421 10.025 4.265 10.025 9.462 0 5.376-4.117 9.995-11.77 9.995-8.1 0-12.173-4.265-13.738-10.083l6.13-2.933c1.12 4.265 3.178 6.709 7.608 6.709 2.865 0 4.655-1.377 4.655-3.199 0-2.443-2.327-3.688-7.026-4.576-6.31-1.2-9.846-4.22-9.846-9.329 0-5.42 4.476-8.929 11.278-8.929 6.22 0 9.98 2.666 12.172 8.13l-5.415 3.198c-1.118-3.332-3.312-5.464-6.891-5.464-2.686 0-4.61 1.155-4.61 2.932 0 1.687 1.79 2.888 7.428 4.087M33.36 75.31h6.086V45.541h-7.112L22.107 69.279 11.88 45.541H4.768v29.77h6.087V54.867l2.23 6.515c.259.676.49 1.343.703 2.02l5.329 11.907h5.98l5.33-11.906c.212-.678.445-1.346.709-2.041l2.223-6.495V75.31zm7.454 1.286h-8.822V62.989c-.092.271-.18.54-.265.813l-.026.068-5.696 12.726H18.21l-5.722-12.794a32.103 32.103 0 00-.265-.813v13.607H3.4v-32.34h9.401l9.305 21.6 9.306-21.6h9.4v32.34zM45.508 44.732v18.764c0 7.668 5 12.623 12.737 12.623S70.98 71.164 70.98 63.496V44.732h-5.934V62.58c0 5.007-2.543 7.996-6.802 7.996-4.26 0-6.803-2.99-6.803-7.996V44.732h-5.934zm12.737 32.715c-8.392 0-14.03-5.607-14.03-13.95V43.403h8.52V62.58c0 4.238 2.008 6.668 5.51 6.668s5.51-2.43 5.51-6.668V43.404h8.519v20.092c0 8.344-5.638 13.95-14.03 13.95zM74.8 68.035c1.999 5.014 5.975 7.257 12.805 7.257 7.654 0 12.224-3.656 12.224-9.782 0-4.722-2.668-7.298-8.654-8.353l-5.098-.9c-1.975-.36-4.243-1.101-4.243-3.653 0-1.419.738-3.8 5.677-3.8 3.337 0 5.318 1.204 6.492 3.994l5.04-2.605c-1.941-4.377-5.465-6.337-11.344-6.337-6.948 0-11.616 3.697-11.616 9.198 0 4.919 2.844 7.783 8.693 8.757l5.05.854c1.843.3 4.3 1.013 4.3 3.7 0 2.492-2.281 3.98-6.1 3.98-4.138 0-6.534-1.4-8.104-4.792l-5.123 2.482zm12.805 8.56c-7.632 0-12.17-2.754-14.288-8.669l-.193-.538 7.505-3.636.27.669c1.358 3.369 3.29 4.62 7.127 4.62 3.015 0 4.745-.975 4.745-2.676 0-.918-.246-1.938-3.176-2.416l-5.052-.854c-6.511-1.085-9.814-4.463-9.814-10.041 0-6.183 5.333-10.5 12.97-10.5 6.663 0 10.741 2.448 12.832 7.704l.213.535-7.5 3.876-.252-.738c-.953-2.787-2.438-3.823-5.48-3.823-2.869 0-4.324.84-4.324 2.496 0 .87.243 1.843 3.14 2.373l5.091.899c6.662 1.173 9.765 4.235 9.765 9.634 0 6.838-5.204 11.086-13.58 11.086z" fill="#FFF"/><mask id="d" fill="#fff"><use xlink:href="#c"/></mask><path d="M105.154 75.31h6.514V45.54h-6.514v29.77zm-1.42 1.286h9.354v-32.34h-9.354v32.34zM133.681 43.857c-9.818 0-16.675 6.463-16.675 15.718 0 9.401 6.626 15.717 16.488 15.717 6.397 0 10.585-2.233 14.312-7.678l-5.04-3.446c-2.473 3.975-5.28 5.683-9.272 5.683-5.823 0-10.213-4.419-10.213-10.276 0-6.746 5.114-10.276 10.166-10.276 3.849 0 6.835 1.832 8.884 5.447l5.25-3.485c-2.457-4.647-7.608-7.404-13.9-7.404m-.187 32.739c-10.513 0-17.856-7-17.856-17.021 0-9.863 7.589-17.022 18.043-17.022 7.06 0 12.814 3.237 15.389 8.658l.235.493-7.494 4.974-.347-.689c-1.806-3.574-4.504-5.387-8.017-5.387-5.1 0-8.8 3.773-8.8 8.973 0 5.2 3.72 8.973 8.847 8.973 3.682 0 6.132-1.636 8.458-5.646l.372-.641 7.326 5.01-.34.519c-4.047 6.172-8.777 8.806-15.816 8.806M167.225 75.31h6.514V45.54h-6.514v29.77zm-1.42 1.286h9.353v-32.34h-9.353v32.34zM200.645 75.31H207V45.541h-5.874v22.55l-1.267-2.888c-.13-.297-.44-.9-.736-1.392l-.154-.268c-.128-.226-.26-.46-.406-.66l-11.478-17.342h-6.356v29.77h5.874V52.202l1.278 3.34c.105.273.369.77.725 1.364l.148.258c.129.23.264.467.412.668l11.48 17.477zm7.674 1.286h-8.396l-11.85-18.042a3.646 3.646 0 01-.15-.221v18.263h-8.513v-32.34h8.394l11.85 17.906c.052.071.103.146.152.222V44.255h8.513v32.34zM12.314 117.863h6.03v-11.32l10.075-18.449h-6.703l-4.894 9.54-.296.71-1.161 3.06-.642-1.506c-.174-.41-.323-.82-.464-1.21l-.136-.37-.308-.728-4.873-9.496H2.196l10.118 18.45v11.32zm7.343 1.286H11v-12.283L0 86.81h9.752l5.257 10.248.32.755.3-.712 5.277-10.291h9.704l-10.953 20.057v12.283zM47.191 93.156c-5.139 0-8.727 3.69-8.727 8.972 0 5.283 3.588 8.972 8.727 8.972s8.728-3.69 8.728-8.972c0-5.283-3.589-8.972-8.728-8.972m0 19.248c-5.822 0-10.048-4.322-10.048-10.276s4.226-10.276 10.048-10.276 10.049 4.322 10.049 10.276-4.227 10.276-10.049 10.276m0-25.994c-9.184 0-16.11 6.757-16.11 15.718 0 8.96 6.926 15.718 16.11 15.718s16.11-6.757 16.11-15.718c0-8.96-6.926-15.718-16.11-15.718m0 32.739c-9.937 0-17.431-7.318-17.431-17.021 0-9.704 7.494-17.022 17.431-17.022 9.937 0 17.43 7.318 17.43 17.022 0 9.703-7.493 17.02-17.43 17.02M69.315 87.285v18.764c0 7.668 5 12.623 12.738 12.623 7.737 0 12.736-4.955 12.736-12.623V87.285h-5.934v17.847c0 5.007-2.543 7.996-6.802 7.996-4.26 0-6.803-2.989-6.803-7.996V87.285h-5.935zM82.053 120c-8.392 0-14.03-5.607-14.03-13.95V85.956h8.52v19.175c0 4.238 2.008 6.668 5.51 6.668s5.509-2.43 5.509-6.668V85.957h8.52v20.092c0 8.344-5.638 13.951-14.03 13.951zM108.15 99.763h6.558c2.276 0 3.382-.95 3.382-2.906 0-1.956-1.106-2.906-3.382-2.906h-6.558v5.812zm6.558 1.286h-7.873v-8.384h7.873c2.985 0 4.697 1.528 4.697 4.192s-1.712 4.192-4.697 4.192zm4.196 16.814h6.385l-7.248-12.53.675-.283c4.494-1.883 6.497-4.493 6.497-8.46 0-5.479-3.988-8.495-11.232-8.495h-13.183v29.768h6.037V105.62h4.99l7.079 12.244zm8.638 1.286h-9.406l-7.08-12.244h-2.906v12.244h-8.667v-32.34h14.498c7.974 0 12.548 3.565 12.548 9.782 0 4.285-2.11 7.27-6.628 9.347l7.641 13.21zM165.31 117.863h5.992V88.094h-5.991v11.89h-13.466v-11.89h-5.991v29.77h5.991v-12.511h13.466v12.51zm7.297 1.286h-8.602v-12.51H153.15v12.51h-8.602v-32.34h8.602v11.89h10.855v-11.89h8.602v32.34zM188.052 105.708h5.672l-2.586-6.8a11.25 11.25 0 01-.251-.61c-.083.23-.17.449-.266.65l-.438 1.113-2.131 5.647zm7.563 1.285h-9.455l3.247-8.548c.207-.436.371-.969.546-1.532.096-.317.197-.643.31-.97l.688-2.015.574 2.05c.3 1.073.558 1.826.834 2.44l.467 1.18 2.79 7.395zm4.16 10.87h6.582l-12.45-29.769h-6.038l-12.449 29.77H182l2.325-6.034h13.127l2.323 6.033zm8.544 1.286h-9.458l-2.324-6.033H185.24l-2.324 6.033h-9.457l13.523-32.34h7.814l13.524 32.34zM230.404 117.863h6.356V88.094h-5.874v22.527l-1.266-2.863a15.489 15.489 0 00-.738-1.394l-.156-.273a6.687 6.687 0 00-.403-.654l-11.477-17.343h-6.357v29.77h5.874v-23.08l1.277 3.31c.106.273.37.77.726 1.367l.156.27c.127.226.259.459.403.655l11.48 17.477zm7.675 1.286h-8.397l-11.849-18.042a3.646 3.646 0 01-.15-.221v18.263h-8.514v-32.34h8.395l11.85 17.907a4.2 4.2 0 01.152.222v-18.13h8.513v32.34zM250.89 111.386h2.892c5.654 0 8.897-3.064 8.897-8.407 0-5.344-3.243-8.408-8.897-8.408h-2.892v16.815zm2.892 1.286h-4.19V93.286h4.19c6.385 0 10.197 3.624 10.197 9.693 0 6.07-3.812 9.693-10.197 9.693zm-10.152 5.191h9.48c10.54 0 16.831-5.564 16.831-14.884s-6.292-14.885-16.831-14.885h-9.48v29.77zm9.48 1.286h-10.78v-32.34h10.78c11.183 0 18.13 6.196 18.13 16.17 0 9.974-6.947 16.17-18.13 16.17zM274.616 110.589c2 5.013 5.977 7.257 12.806 7.257 7.654 0 12.223-3.657 12.223-9.782 0-4.723-2.668-7.299-8.652-8.353l-5.1-.9c-1.975-.361-4.243-1.102-4.243-3.654 0-1.419.738-3.8 5.679-3.8 3.335 0 5.317 1.205 6.49 3.995l5.041-2.606c-1.94-4.377-5.466-6.336-11.345-6.336-6.947 0-11.615 3.696-11.615 9.197 0 4.92 2.843 7.784 8.693 8.757l5.05.855c1.843.3 4.299 1.012 4.299 3.7 0 2.491-2.28 3.98-6.1 3.98-4.136 0-6.532-1.4-8.103-4.792l-5.123 2.482zm12.806 8.56c-7.63 0-12.17-2.755-14.288-8.67l-.193-.537 7.503-3.637.27.668c1.36 3.37 3.293 4.622 7.128 4.622 3.015 0 4.745-.976 4.745-2.677 0-.918-.245-1.937-3.175-2.416l-5.051-.855c-6.512-1.083-9.816-4.462-9.816-10.04 0-6.182 5.334-10.5 12.97-10.5 6.665 0 10.743 2.448 12.833 7.704l.212.535-7.5 3.877-.252-.739c-.952-2.786-2.437-3.823-5.479-3.823-2.87 0-4.324.84-4.324 2.496 0 .87.242 1.844 3.14 2.373l5.092.9c6.66 1.173 9.763 4.234 9.763 9.634 0 6.837-5.203 11.085-13.578 11.085z" fill="#FFF" mask="url(#d)"/></g><g><mask id="f" fill="#fff"><use xlink:href="#e"/></mask><path d="M28.005 41.969c0-7.724 6.266-13.984 13.995-13.984 7.729 0 13.995 6.26 13.995 13.984 0 7.723-6.266 13.984-13.995 13.984-7.73 0-13.995-6.26-13.995-13.984m54.783 41.97H43.256v-.021C65.87 83.254 84 64.728 84 41.969 84 18.79 65.196 0 42 0 18.805 0 0 18.79 0 41.969c0 23.179 18.804 41.969 42 41.969 0 22.577 18.232 40.898 40.785 41.062a.306.306 0 00.306-.304V84.24a.302.302 0 00-.303-.302" fill="#FFF" mask="url(#f)"/></g></g></svg>